<svg width="25" height="24" viewBox="0 0 25 24" fill="none" xmlns="http://www.w3.org/2000/svg">
<path fill-rule="evenodd" clip-rule="evenodd" d="M22.5 4.75C22.5 5.16421 22.1642 5.5 21.75 5.5L7.25 5.5C6.83579 5.5 6.5 5.16421 6.5 4.75C6.5 4.33578 6.83579 4 7.25 4H21.75C22.1642 4 22.5 4.33579 22.5 4.75ZM22.5 11.75C22.5 12.1642 22.1642 12.5 21.75 12.5L7.25 12.5C6.83579 12.5 6.5 12.1642 6.5 11.75C6.5 11.3358 6.83579 11 7.25 11L21.75 11C22.1642 11 22.5 11.3358 22.5 11.75ZM21.75 19.5C22.1642 19.5 22.5 19.1642 22.5 18.75C22.5 18.3358 22.1642 18 21.75 18L7.25 18C6.83579 18 6.5 18.3358 6.5 18.75C6.5 19.1642 6.83579 19.5 7.25 19.5L21.75 19.5Z" fill="#008ECC"/>
<circle cx="3.5" cy="5" r="1" fill="#008ECC"/>
<circle cx="3.5" cy="12" r="1" fill="#008ECC"/>
<circle cx="3.5" cy="19" r="1" fill="#008ECC"/>
</svg>
