<svg width="35" height="28" viewBox="0 0 35 28" fill="none" xmlns="http://www.w3.org/2000/svg">
<path d="M7.9 27V10.75C7.9 8.16414 8.91143 5.68419 10.7118 3.85571C12.5121 2.02723 14.9539 1 17.5 1C20.0461 1 22.4879 2.02723 24.2882 3.85571C26.0886 5.68419 27.1 8.16414 27.1 10.75V27M1.5 16.5431C1.5 13.207 4.7 12.375 7.9 12.375V27C6.20261 27 4.57475 26.3152 3.37452 25.0962C2.17428 23.8772 1.5 22.2239 1.5 20.5V16.5431ZM33.5 16.5431C33.5 13.207 30.3 12.375 27.1 12.375V27C28.7974 27 30.4252 26.3152 31.6255 25.0962C32.8257 23.8772 33.5 22.2239 33.5 20.5V16.5431Z" stroke="#FAFAFA" stroke-width="2" stroke-linecap="round" stroke-linejoin="round"/>
</svg>
