<svg width="41" height="40" viewBox="0 0 41 40" fill="none" xmlns="http://www.w3.org/2000/svg">
<path d="M8.59919 30.5992L8.59895 30.5991C7.72622 29.9483 6.92561 28.9206 6.34282 27.759C5.75998 26.5973 5.41675 25.3451 5.41675 24.2666V11.8666C5.41675 9.50736 7.17158 6.96177 9.39125 6.13513L9.39221 6.13477L17.7085 3.01826C17.7085 3.01823 17.7086 3.0182 17.7087 3.01817C18.4622 2.73661 19.4617 2.5874 20.4834 2.5874C21.5052 2.5874 22.5046 2.73661 23.2581 3.01817C23.2582 3.0182 23.2583 3.01823 23.2584 3.01826L31.5746 6.13477L31.5756 6.13513C33.7953 6.96177 35.5501 9.50736 35.5501 11.8666V24.2499C35.5501 25.3371 35.2067 26.5892 34.6242 27.7483C34.0417 28.9073 33.2411 29.9313 32.3679 30.5824L32.3676 30.5826L25.201 35.9326L25.2009 35.9325L25.1948 35.9373C23.9121 36.9264 22.2241 37.4332 20.5001 37.4332C18.7775 37.4332 17.0853 36.927 15.765 35.9486C15.7648 35.9484 15.7646 35.9483 15.7645 35.9482L8.59919 30.5992ZM18.242 4.43145L18.2413 4.4317L9.92462 7.54837L9.92392 7.54863C9.09634 7.86019 8.3551 8.52248 7.82418 9.29061C7.29309 10.059 6.93341 10.9898 6.93341 11.8832V24.2666C6.93341 25.161 7.244 26.1892 7.701 27.101C8.15788 28.0126 8.79337 28.8722 9.50094 29.4005L9.50098 29.4006L16.6673 34.7503C17.7293 35.5445 19.1283 35.9249 20.5022 35.9249C21.8762 35.9249 23.2784 35.5445 24.3479 34.7516L24.3492 34.7506L31.5159 29.4006L31.5168 29.3999C32.2315 28.8638 32.867 28.005 33.3223 27.0943C33.7776 26.1837 34.0834 25.16 34.0834 24.2666V11.8666C34.0834 10.9804 33.723 10.0538 33.1926 9.28645C32.6621 8.51889 31.9224 7.85396 31.0977 7.5338L31.0977 7.53376L31.0922 7.5317L22.7755 4.41503L22.7756 4.41495L22.7665 4.41174C22.1283 4.18651 21.3003 4.08314 20.5008 4.08532C19.7022 4.0875 18.8753 4.19514 18.242 4.43145Z" fill="#FAFAFA" stroke="#FAFAFA"/>
<path d="M17.913 21.0536L18.2666 21.4071L18.6201 21.0536L24.9035 14.7703C25.1915 14.4822 25.6749 14.4822 25.963 14.7703C26.2511 15.0583 26.2511 15.5417 25.963 15.8298L18.7963 22.9965C18.6451 23.1478 18.4578 23.2167 18.2666 23.2167C18.0754 23.2167 17.8881 23.1478 17.7368 22.9965L15.0535 20.3131C14.7654 20.0251 14.7654 19.5417 15.0535 19.2536C15.3415 18.9655 15.8249 18.9655 16.113 19.2536L17.913 21.0536Z" fill="#FAFAFA" stroke="#FAFAFA"/>
</svg>
